<svg xmlns="http://www.w3.org/2000/svg" width="18" height="18" viewBox="0 0 18 18">
    <g fill="none" fill-rule="evenodd">
        <g>
            <g>
                <path d="M0 0H18V18H0z" transform="translate(-140 -1261) translate(140 1261)"/>
                <g fill="#CFA2EE" fill-rule="nonzero">
                    <path d="M15 .5c1.38 0 2.5 1.12 2.5 2.5S16.38 5.5 15 5.5c-.253 0-.497-.038-.727-.107l-5.89 6.848c.076.24.117.495.117.759 0 1.38-1.12 2.5-2.5 2.5S3.5 14.38 3.5 13c0-.982.566-1.832 1.39-2.24L3.102 5.495 3 5.5C1.675 5.5.59 4.468.505 3.164L.5 3C.5 1.62 1.62.5 3 .5S5.5 1.62 5.5 3c0 .995-.582 1.855-1.423 2.257l1.782 5.247L6 10.5c.735 0 1.396.317 1.854.823L13.376 4.9C12.84 4.442 12.5 3.76 12.5 3c0-1.38 1.12-2.5 2.5-2.5zm-9 11c-.828 0-1.5.672-1.5 1.5s.672 1.5 1.5 1.5 1.5-.672 1.5-1.5-.672-1.5-1.5-1.5zm-3-10c-.828 0-1.5.672-1.5 1.5S2.172 4.5 3 4.5 4.5 3.828 4.5 3 3.828 1.5 3 1.5zm12 0c-.828 0-1.5.672-1.5 1.5s.672 1.5 1.5 1.5 1.5-.672 1.5-1.5-.672-1.5-1.5-1.5z" transform="translate(-140 -1261) translate(140 1261) translate(0 1)"/>
                </g>
            </g>
        </g>
    </g>
</svg>
