<svg xmlns="http://www.w3.org/2000/svg" width="18" height="18" viewBox="0 0 18 18">
    <g fill="none" fill-rule="evenodd">
        <g>
            <g>
                <g>
                    <g>
                        <path d="M0 0H18V18H0z" transform="translate(-125 -447) translate(120 442) translate(5 5)"/>
                        <path fill="#CFA2EE" fill-rule="nonzero" d="M11.5 0C12.88 0 14 1.12 14 2.5c0 .514-.155.991-.42 1.388l2.237 3.132C17.048 7.176 18 8.227 18 9.5c0 1.295-.985 2.36-2.246 2.487l-.863 1.435C15.56 13.872 16 14.634 16 15.5c0 1.38-1.12 2.5-2.5 2.5-1.231 0-2.255-.89-2.462-2.062H5v-1h6.064C11.319 13.827 12.313 13 13.5 13c.155 0 .307.014.455.041l.71-1.184C13.695 11.514 13 10.588 13 9.5c0-1.091.7-2.02 1.674-2.36L12.86 4.599C12.468 4.853 12 5 11.5 5c-.815 0-1.538-.39-1.995-.993l-3.89 2.16C5.86 6.553 6 7.01 6 7.5 6 8.88 4.88 10 3.5 10c-.171 0-.338-.017-.5-.05v3.1c1.141.232 2 1.24 2 2.45C5 16.88 3.88 18 2.5 18S0 16.88 0 15.5c0-1.21.86-2.219 2-2.45V9.5c-.607-.456-1-1.182-1-2C1 6.12 2.12 5 3.5 5c.516 0 .995.156 1.393.424l4.18-2.321C9.025 2.91 9 2.708 9 2.5 9 1.12 10.12 0 11.5 0zm-9 14c-.828 0-1.5.672-1.5 1.5S1.672 17 2.5 17 4 16.328 4 15.5 3.328 14 2.5 14zm11 0c-.828 0-1.5.672-1.5 1.5s.672 1.5 1.5 1.5 1.5-.672 1.5-1.5-.672-1.5-1.5-1.5zm2-6c-.828 0-1.5.672-1.5 1.5s.672 1.5 1.5 1.5 1.5-.672 1.5-1.5S16.328 8 15.5 8zm-12-2C2.672 6 2 6.672 2 7.5S2.672 9 3.5 9 5 8.328 5 7.5 4.328 6 3.5 6zm8-5c-.828 0-1.5.672-1.5 1.5S10.672 4 11.5 4 13 3.328 13 2.5 12.328 1 11.5 1z" transform="translate(-125 -447) translate(120 442) translate(5 5)"/>
                    </g>
                </g>
            </g>
        </g>
    </g>
</svg>
